# xmcd
#
# Track frame offsets: 
#        150
#        19977
#        38386
#        59801
#        78868
#        113477
#        138104
#        158956
#        175443
#        194250
#        216002
#        238229
#        257434
#
# Disc length: 3684 seconds
#
# Revision: 0
# Processed by: cddbd v1.5.2PL0 Copyright (c) Steve Scherf et al.
# Submitted via: ExactAudioCopyFreeDBPlugin 1.0
#
DISCID=aa0e620d
DTITLE=Blackstreet - Finally
DYEAR=1999
DGENRE=R&B
TTITLE0=dfgfgd
TTITLE1=Girlfriend_Boyfriend
TTITLE2=dfggfd
TTITLE3=I Got What You On
TTITLE4=fdgdfg
TTITLE5=I'm Sorry
TTITLE6=fgdfg
TTITLE7=fdgdgf
TTITLE8=In A Rush
TTITLE9=Hustler's Prayer
TTITLE10=Finally
TTITLE11=Take Me There (Remix)
TTITLE12=On The Floor
EXTD=
EXTT0=
EXTT1=
EXTT2=
EXTT3=
EXTT4=
EXTT5=
EXTT6=
EXTT7=
EXTT8=
EXTT9=
EXTT10=
EXTT11=
EXTT12=
PLAYORDER=
